HIERARCHY
ROOT Hips
{
	OFFSET -0.001795 -0.223333 0.028219
	CHANNELS 6 Xposition Yposition Zposition Zrotation Yrotation Xrotation 
	JOINT LeftUpLeg
	{
		OFFSET 0.069520 -0.091406 -0.006815
		CHANNELS 3 Zrotation Yrotation Xrotation
		JOINT LeftLeg
		{
			OFFSET 0.034277 -0.375199 -0.004496
			CHANNELS 3 Zrotation Yrotation Xrotation
			JOINT LeftFoot
			{
				OFFSET -0.013596 -0.397961 -0.043693
				CHANNELS 3 Zrotation Yrotation Xrotation
				JOINT LeftToe
				{
					OFFSET 0.026358 -0.055791 0.119288
					CHANNELS 3 Zrotation Yrotation Xrotation
					End Site
					{
						OFFSET 0.000000 0.000000 0.000000
					}
				}
			}
		}
	}
	JOINT RightUpLeg
	{
		OFFSET -0.067670 -0.090522 -0.004320
		CHANNELS 3 Zrotation Yrotation Xrotation
		JOINT RightLeg
		{
			OFFSET -0.038290 -0.382569 -0.008850
			CHANNELS 3 Zrotation Yrotation Xrotation
			JOINT RightFoot
			{
				OFFSET 0.015774 -0.398415 -0.042312
				CHANNELS 3 Zrotation Yrotation Xrotation
				JOINT RightToe
				{
					OFFSET -0.025372 -0.048144 0.123348
					CHANNELS 3 Zrotation Yrotation Xrotation
					End Site
					{
						OFFSET 0.000000 0.000000 0.000000
					}
				}
			}
		}
	}
	JOINT Spine
	{
		OFFSET -0.002533 0.108963 -0.026696
		CHANNELS 3 Zrotation Yrotation Xrotation
		JOINT Spine1
		{
			OFFSET 0.005487 0.135180 0.001092
			CHANNELS 3 Zrotation Yrotation Xrotation
			JOINT Spine2
			{
				OFFSET 0.001457 0.052922 0.025425
				CHANNELS 3 Zrotation Yrotation Xrotation
				JOINT Neck
				{
					OFFSET -0.002778 0.213870 -0.042857
					CHANNELS 3 Zrotation Yrotation Xrotation
					JOINT Head
					{
						OFFSET 0.005152 0.064970 0.051349
						CHANNELS 3 Zrotation Yrotation Xrotation
						End Site
						{
							OFFSET 0.000000 0.000000 0.000000
						}
					}
				}
				JOINT LeftShoulder
				{
					OFFSET 0.078845 0.121749 -0.034090
					CHANNELS 3 Zrotation Yrotation Xrotation
					JOINT LeftArm
					{
						OFFSET 0.090977 0.030469 -0.008868
						CHANNELS 3 Zrotation Yrotation Xrotation
						JOINT LeftForeArm
						{
							OFFSET 0.259612 -0.012772 -0.027456
							CHANNELS 3 Zrotation Yrotation Xrotation
							JOINT LeftHand
							{
								OFFSET 0.249234 0.008986 -0.001171
								CHANNELS 3 Zrotation Yrotation Xrotation
								End Site
								{
									OFFSET 0.000000 0.000000 0.000000
								}
							}
						}
					}
				}
				JOINT RightShoulder
				{
					OFFSET -0.081759 0.118833 -0.038615
					CHANNELS 3 Zrotation Yrotation Xrotation
					JOINT RightArm
					{
						OFFSET -0.096012 0.032551 -0.009143
						CHANNELS 3 Zrotation Yrotation Xrotation
						JOINT RightForeArm
						{
							OFFSET -0.253742 -0.013329 -0.021401
							CHANNELS 3 Zrotation Yrotation Xrotation
							JOINT RightHand
							{
								OFFSET -0.255298 0.007772 -0.005559
								CHANNELS 3 Zrotation Yrotation Xrotation
								End Site
								{
									OFFSET 0.000000 0.000000 0.000000
								}
							}
						}
					}
				}
			}
		}
	}
}
MOTION
Frames: 13
Frame Time: 0.050000
0.000000 0.959403 0.000000 -2.142792 1.832937 1.250369 3.919019 0.111809 3.453350 -3.231832 0.366603 -5.582948 5.094874 13.953256 18.590344 0.000000 0.000000 0.000000 -0.407342 0.101118 -0.929071 2.942745 -0.318220 0.460186 -6.010853 -16.228787 15.403622 0.000000 0.000000 0.000000 -1.802079 -0.202578 8.290815 5.556026 -0.460519 -27.453603 -2.018932 -0.198064 27.623821 0.581592 1.241982 -23.681391 0.000000 0.000000 0.000000 -32.429149 1.482429 -3.741127 -45.290265 -3.533637 -6.184324 -9.294409 -21.397422 2.758748 0.000000 0.000000 0.000000 24.158351 3.304763 1.010675 51.990744 3.031825 -6.409749 8.320502 25.684673 2.966751 0.000000 0.000000 0.000000 
0.000114 0.959627 0.000722 -2.388375 1.206160 1.752203 4.113325 0.097273 3.304595 -3.233033 0.373413 -6.069657 5.418083 14.352716 18.888747 0.000000 0.000000 0.000000 -0.248108 0.149926 -1.440743 2.573223 -0.276369 0.166666 -5.158500 -14.906348 15.989299 0.000000 0.000000 0.000000 -1.208963 -0.225911 7.585578 5.166804 -0.383222 -27.487582 -1.972889 0.347039 27.449100 0.441560 1.391675 -24.161526 0.000000 0.000000 0.000000 -32.631115 2.320320 -4.446411 -45.097882 -3.243569 -6.220868 -9.143462 -21.151796 2.694440 0.000000 0.000000 0.000000 23.901900 3.236778 1.007292 52.983683 1.897257 -6.965004 7.343435 27.638741 3.030737 0.000000 0.000000 0.000000 
0.000398 0.959095 0.001070 -2.104768 1.197548 1.996079 4.058166 0.085064 3.051301 -3.826756 0.404730 -5.818778 5.474191 14.345459 18.234833 0.000000 0.000000 0.000000 -0.606852 0.197126 -1.885404 2.145408 -0.225960 0.313361 -4.655992 -14.097062 16.347124 0.000000 0.000000 0.000000 -0.932825 -0.235471 7.276275 4.538575 -0.237536 -27.666460 -1.842002 -0.034765 27.497509 0.039970 1.538643 -23.637192 0.000000 0.000000 0.000000 -32.742617 1.822764 -3.923850 -44.324294 -3.055612 -6.239311 -8.657095 -20.807422 2.560330 0.000000 0.000000 0.000000 23.937038 3.749052 1.181395 52.933714 1.807353 -6.958686 6.682828 27.303314 2.806497 0.000000 0.000000 0.000000 
0.000683 0.959173 0.001182 -2.144218 0.897058 1.846857 3.662188 0.108435 3.059567 -3.350693 0.379693 -5.214846 5.905260 14.828904 17.517107 0.000000 0.000000 0.000000 -0.583522 0.218999 -2.117809 2.298851 -0.230507 0.903625 -4.850107 -14.465487 16.337587 0.000000 0.000000 0.000000 -0.908420 -0.240967 7.390780 5.027269 -0.307054 -28.201424 -2.143086 0.191545 27.954980 0.207733 1.422239 -23.318493 0.000000 0.000000 0.000000 -33.584561 2.285928 -4.379504 -43.463068 -2.610604 -6.294126 -8.635561 -20.358905 2.494982 0.000000 0.000000 0.000000 23.605929 4.081379 1.424815 52.629711 1.748493 -7.009256 7.349949 27.449361 2.979802 0.000000 0.000000 0.000000 
0.001098 0.959188 0.000875 -2.000185 1.055313 1.736711 3.567875 0.106230 2.958479 -3.615302 0.393808 -4.735752 5.969137 14.879392 17.013150 0.000000 0.000000 0.000000 -0.838428 0.210056 -2.008113 2.195825 -0.222639 0.739728 -4.653494 -14.165602 16.820536 0.000000 0.000000 0.000000 -0.817540 -0.266876 7.903156 5.188777 -0.383041 -27.567650 -2.365361 0.589961 26.841187 0.217904 1.453000 -22.282999 0.000000 0.000000 0.000000 -33.566646 1.859000 -4.369542 -42.954076 -2.467860 -6.087710 -8.993028 -19.993181 2.474019 0.000000 0.000000 0.000000 23.782487 3.918205 1.447388 52.041630 1.711967 -6.872140 7.885057 27.034773 3.047186 0.000000 0.000000 0.000000 
0.001663 0.959441 0.000007 -1.982778 1.070312 1.859564 3.377935 0.089637 2.554722 -3.680460 0.397133 -4.065858 6.321027 15.288321 16.186776 0.000000 0.000000 0.000000 -1.028058 0.226604 -2.169810 2.187750 -0.216742 0.989570 -4.154933 -13.268454 16.336905 0.000000 0.000000 0.000000 -0.954738 -0.264528 8.164757 5.363126 -0.385973 -28.040845 -2.308808 0.734435 27.222792 0.161939 1.534435 -22.681228 0.000000 0.000000 0.000000 -33.531707 1.833269 -4.395499 -42.706946 -2.203871 -6.155795 -9.831360 -20.238532 2.650922 0.000000 0.000000 0.000000 23.490800 4.182725 1.676456 51.673572 2.002827 -6.763540 7.957637 26.538129 2.995736 0.000000 0.000000 0.000000 
0.002379 0.959419 -0.001353 -1.927408 0.971584 1.981434 3.608918 0.051415 2.056609 -4.199746 0.435485 -3.769972 6.344109 15.363825 16.695357 0.000000 0.000000 0.000000 -1.166954 0.241856 -2.324358 2.053643 -0.200941 0.969081 -3.807981 -12.672872 16.170332 0.000000 0.000000 0.000000 -1.001746 -0.271153 8.497811 5.289134 -0.391569 -27.730083 -2.321903 0.877811 27.041095 0.285295 1.480699 -22.837501 0.000000 0.000000 0.000000 -33.365430 1.791987 -4.385531 -42.624432 -2.292517 -6.091855 -9.925854 -20.266660 2.665192 0.000000 0.000000 0.000000 23.617511 4.513107 1.891000 51.400102 2.375453 -6.570694 8.008072 26.149069 2.945789 0.000000 0.000000 0.000000 
0.003266 0.959378 -0.002670 -2.029727 1.107633 2.400391 3.507338 0.016587 1.474897 -4.453017 0.453606 -3.456445 7.048082 16.287437 15.791218 0.000000 0.000000 0.000000 -1.178300 0.307954 -3.040713 2.090430 -0.199443 1.266377 -3.770738 -12.612354 16.349260 0.000000 0.000000 0.000000 -1.179828 -0.259717 8.638390 5.363156 -0.410714 -27.572147 -2.156560 1.170483 27.167662 0.590575 1.369329 -23.116248 0.000000 0.000000 0.000000 -32.644146 1.669072 -4.348310 -42.837439 -2.469218 -6.032674 -10.687056 -20.690867 2.853991 0.000000 0.000000 0.000000 23.357350 4.366187 1.932894 51.194744 2.724846 -6.436916 7.944693 25.845220 2.903629 0.000000 0.000000 0.000000 
0.004621 0.959386 -0.003390 -2.148960 1.075533 2.623703 3.330146 -0.012131 0.924502 -4.364335 0.447763 -3.273760 7.786482 17.365461 16.277326 0.000000 0.000000 0.000000 -1.167607 0.351989 -3.518088 2.179684 -0.206385 1.437089 -3.884282 -12.863603 16.746546 0.000000 0.000000 0.000000 -1.402315 -0.257637 9.226134 5.558721 -0.449234 -27.588809 -1.940229 1.409574 27.235336 0.644753 1.391806 -23.431793 0.000000 0.000000 0.000000 -32.444462 1.718412 -4.442899 -42.800031 -2.418417 -6.029257 -11.009252 -21.188678 2.981892 0.000000 0.000000 0.000000 23.304009 4.691236 2.200861 50.814334 2.819782 -6.381692 7.630892 25.904412 2.842315 0.000000 0.000000 0.000000 
0.006723 0.959323 -0.002951 -2.272313 1.449101 2.917482 3.212570 -0.045160 0.408127 -4.168827 0.429807 -2.808945 7.684389 17.208995 15.639384 0.000000 0.000000 0.000000 -1.102131 0.436428 -4.436525 2.292514 -0.205758 2.333079 -4.523923 -13.952291 17.383824 0.000000 0.000000 0.000000 -1.468684 -0.275547 9.925876 5.484004 -0.418908 -27.751391 -1.834203 1.340755 27.291396 0.737927 1.354830 -23.354993 0.000000 0.000000 0.000000 -31.911750 1.733546 -4.444289 -43.047183 -2.410251 -6.053921 -11.050058 -21.252063 2.994472 0.000000 0.000000 0.000000 23.764857 4.695622 2.270259 49.974592 2.929327 -6.275094 7.572226 25.869288 2.822673 0.000000 0.000000 0.000000 
0.009818 0.959169 -0.000930 -2.457343 1.957626 3.157833 3.106217 -0.073085 -0.005840 -3.655207 0.383498 -2.272516 7.055328 16.300883 14.968529 0.000000 0.000000 0.000000 -1.036169 0.545085 -5.616035 2.630450 -0.228220 4.085137 -5.532014 -15.566121 17.784381 0.000000 0.000000 0.000000 -1.474942 -0.303223 10.662306 5.328438 -0.359184 -28.077024 -1.670075 0.934665 27.576373 0.593267 1.477670 -24.248983 0.000000 0.000000 0.000000 -31.776315 1.785715 -4.413443 -42.859249 -2.707260 -5.969699 -10.599352 -21.514655 2.952552 0.000000 0.000000 0.000000 23.506747 4.425362 2.091076 49.896315 2.947084 -6.274221 7.475470 25.855748 2.800073 0.000000 0.000000 0.000000 
0.013981 0.958859 0.002917 -2.851870 2.626060 3.196584 3.074063 -0.065279 0.188281 -3.163099 0.334044 -1.703396 6.403429 15.166336 12.872129 0.000000 0.000000 0.000000 -1.084765 0.710854 -7.485761 3.566546 -0.361851 7.578990 -6.836608 -17.608462 18.502215 0.000000 0.000000 0.000000 -1.641490 -0.315764 11.355685 5.515318 -0.424399 -27.544621 -1.452629 0.592813 27.387320 0.950284 1.272526 -24.300352 0.000000 0.000000 0.000000 -31.430647 1.778783 -4.406429 -42.982855 -2.737818 -5.944643 -10.466157 -21.836875 2.969151 0.000000 0.000000 0.000000 23.468267 4.350269 2.068586 49.875506 2.857119 -6.283424 6.448002 26.174044 2.622321 0.000000 0.000000 0.000000 
0.018836 0.958217 0.009023 -2.981636 2.902928 2.966382 2.807284 -0.027229 0.679107 -3.150084 0.328125 -1.197009 6.573021 15.302746 11.759747 0.000000 0.000000 0.000000 -2.015468 0.928691 -10.749801 5.368657 -0.804867 14.127551 -7.980750 -19.373966 19.804424 0.000000 0.000000 0.000000 -2.057502 -0.313613 12.670839 5.927880 -0.499113 -27.737001 -1.751744 0.383366 27.866090 1.224858 1.129182 -24.835063 0.000000 0.000000 0.000000 -31.429445 1.617042 -4.245722 -42.314790 -3.329263 -5.728675 -10.163256 -21.725107 2.893896 0.000000 0.000000 0.000000 23.328599 4.451592 2.141878 49.920498 3.064019 -6.264279 6.062607 26.121796 2.538653 0.000000 0.000000 0.000000 
